<svg width="530" height="300" viewBox="0 0 530 300" fill="none" xmlns="http://www.w3.org/2000/svg">
<rect width="530" height="300" fill="#E74856"/>
<path d="M143.922 123.571C144.139 123.571 144.312 123.523 144.442 123.428C144.572 123.324 144.676 123.194 144.754 123.038C144.841 122.873 144.94 122.631 145.053 122.31L145.183 121.946L147.861 114.653H148.173L151.072 122.05C151.167 122.284 151.25 122.54 151.319 122.817C151.388 123.086 151.419 123.307 151.41 123.48L152.294 123.428V124H149.317V123.571C149.828 123.562 150.084 123.354 150.084 122.947C150.084 122.782 150.041 122.579 149.954 122.336L149.499 121.114L146.119 121.192C145.989 121.547 145.837 122.011 145.664 122.583C145.577 122.869 145.469 123.168 145.339 123.48L146.353 123.428V124H143.922V123.571ZM149.317 120.633L148.394 118.15L147.809 116.551H147.783L147.237 118.02L146.535 119.996L146.314 120.633H149.317ZM153.039 123.467L156.666 118.8C156.804 118.618 156.943 118.445 157.082 118.28C157.22 118.107 157.329 117.998 157.407 117.955L154.963 117.994C154.521 118.003 154.209 118.163 154.027 118.475C153.853 118.778 153.723 119.229 153.637 119.827H153.234L153.39 117.5H158.486V117.916L154.82 122.739C154.716 122.869 154.612 122.995 154.508 123.116C154.412 123.229 154.291 123.346 154.144 123.467L156.653 123.506C157.147 123.515 157.506 123.354 157.732 123.025C157.966 122.696 158.126 122.232 158.213 121.634H158.59L158.434 124H153.039V123.467ZM161.55 124.208C160.918 124.208 160.432 124.065 160.094 123.779C159.765 123.493 159.6 123.12 159.6 122.661C159.6 122.158 159.8 121.734 160.198 121.387C160.606 121.04 161.113 120.785 161.719 120.62C162.335 120.447 162.95 120.364 163.565 120.373V119.567C163.565 119.004 163.483 118.566 163.318 118.254C163.154 117.933 162.803 117.773 162.265 117.773C161.997 117.773 161.741 117.829 161.498 117.942C161.256 118.055 161.078 118.224 160.965 118.449C161.078 118.57 161.134 118.735 161.134 118.943C161.134 119.073 161.087 119.199 160.991 119.32C160.896 119.433 160.757 119.489 160.575 119.489C160.393 119.489 160.25 119.433 160.146 119.32C160.042 119.199 159.99 119.043 159.99 118.852C159.99 118.566 160.099 118.306 160.315 118.072C160.541 117.829 160.848 117.639 161.238 117.5C161.637 117.361 162.079 117.292 162.564 117.292C163.292 117.292 163.83 117.487 164.176 117.877C164.523 118.258 164.692 118.865 164.683 119.697L164.67 122.622C164.67 122.899 164.653 123.194 164.618 123.506L165.541 123.454V124H163.682C163.656 123.87 163.626 123.623 163.591 123.259C162.959 123.892 162.278 124.208 161.55 124.208ZM161.849 123.467C162.179 123.467 162.478 123.406 162.746 123.285C163.015 123.155 163.288 122.96 163.565 122.7C163.557 122.57 163.552 122.349 163.552 122.037L163.565 120.815C162.855 120.841 162.222 120.988 161.667 121.257C161.113 121.517 160.835 121.92 160.835 122.466C160.835 122.787 160.931 123.034 161.121 123.207C161.312 123.38 161.555 123.467 161.849 123.467ZM166.433 123.61C166.685 123.61 166.862 123.549 166.966 123.428C167.079 123.298 167.144 123.138 167.161 122.947C167.187 122.748 167.2 122.44 167.2 122.024V119.06C167.2 118.696 167.218 118.414 167.252 118.215L166.329 118.254V117.721H166.732C167.062 117.721 167.3 117.695 167.447 117.643C167.595 117.582 167.733 117.491 167.863 117.37H168.24C168.275 117.708 168.297 118.137 168.305 118.657C168.522 118.302 168.83 117.985 169.228 117.708C169.636 117.431 170.056 117.292 170.489 117.292C170.749 117.292 170.966 117.361 171.139 117.5C171.313 117.639 171.399 117.842 171.399 118.111C171.399 118.25 171.343 118.388 171.23 118.527C171.126 118.666 170.975 118.735 170.775 118.735C170.585 118.735 170.429 118.666 170.307 118.527C170.186 118.38 170.138 118.206 170.164 118.007C169.835 117.998 169.501 118.124 169.163 118.384C168.834 118.644 168.552 118.991 168.318 119.424L168.331 122.622C168.331 123.012 168.314 123.307 168.279 123.506L169.098 123.467V124H166.433V123.61ZM174.59 124.208C173.403 124.208 172.814 123.411 172.822 121.816L172.848 118.046L171.847 118.059V117.5C172.263 117.491 172.614 117.305 172.9 116.941C173.195 116.568 173.412 116.148 173.55 115.68H173.992V117.5H176.176V118.007L173.992 118.033C173.984 119.359 173.975 120.278 173.966 120.789C173.966 121.3 173.966 121.586 173.966 121.647C173.966 122.262 174.04 122.722 174.187 123.025C174.335 123.32 174.59 123.467 174.954 123.467C175.18 123.467 175.401 123.398 175.617 123.259C175.843 123.12 176.038 122.93 176.202 122.687L176.553 122.973C176.215 123.476 175.882 123.809 175.552 123.974C175.223 124.13 174.902 124.208 174.59 124.208ZM179.839 124.208C179.431 124.208 179.059 124.152 178.721 124.039C178.383 123.935 178.092 123.801 177.85 123.636L177.902 124.091H177.356L177.278 121.855H177.681C177.698 122.21 177.793 122.527 177.967 122.804C178.149 123.081 178.383 123.302 178.669 123.467C178.963 123.623 179.275 123.701 179.605 123.701C179.977 123.701 180.307 123.614 180.593 123.441C180.887 123.259 181.035 123.003 181.035 122.674C181.035 122.431 180.961 122.228 180.814 122.063C180.675 121.898 180.497 121.764 180.281 121.66C180.073 121.547 179.778 121.417 179.397 121.27C178.937 121.097 178.569 120.936 178.292 120.789C178.014 120.633 177.776 120.425 177.577 120.165C177.377 119.905 177.278 119.576 177.278 119.177C177.278 118.891 177.347 118.605 177.486 118.319C177.624 118.033 177.858 117.79 178.188 117.591C178.517 117.392 178.955 117.292 179.501 117.292C179.769 117.292 180.042 117.335 180.32 117.422C180.606 117.509 180.87 117.652 181.113 117.851L181.087 117.357H181.633V119.632H181.217C181.191 119.129 181.035 118.696 180.749 118.332C180.471 117.959 180.077 117.773 179.566 117.773C179.176 117.773 178.864 117.873 178.63 118.072C178.404 118.263 178.292 118.492 178.292 118.761C178.292 119.012 178.365 119.225 178.513 119.398C178.669 119.571 178.859 119.719 179.085 119.84C179.31 119.961 179.613 120.096 179.995 120.243C180.445 120.425 180.809 120.594 181.087 120.75C181.364 120.906 181.598 121.114 181.789 121.374C181.988 121.625 182.088 121.933 182.088 122.297C182.088 122.713 181.979 123.064 181.763 123.35C181.555 123.636 181.277 123.853 180.931 124C180.593 124.139 180.229 124.208 179.839 124.208ZM186.363 124.208C185.774 124.208 185.232 124.074 184.738 123.805C184.253 123.536 183.867 123.151 183.581 122.648C183.295 122.145 183.152 121.552 183.152 120.867C183.152 120.26 183.295 119.684 183.581 119.138C183.876 118.583 184.279 118.137 184.79 117.799C185.31 117.461 185.895 117.292 186.545 117.292C187.013 117.292 187.429 117.366 187.793 117.513C188.157 117.66 188.439 117.855 188.638 118.098C188.846 118.341 188.95 118.605 188.95 118.891C188.95 119.09 188.894 119.255 188.781 119.385C188.668 119.515 188.512 119.58 188.313 119.58C188.122 119.58 187.979 119.519 187.884 119.398C187.789 119.268 187.741 119.134 187.741 118.995C187.741 118.778 187.806 118.605 187.936 118.475C187.841 118.206 187.654 118.024 187.377 117.929C187.108 117.825 186.84 117.773 186.571 117.773C186.172 117.773 185.813 117.881 185.492 118.098C185.18 118.315 184.933 118.631 184.751 119.047C184.569 119.463 184.478 119.961 184.478 120.542C184.478 121.123 184.569 121.638 184.751 122.089C184.942 122.54 185.206 122.895 185.544 123.155C185.882 123.406 186.272 123.532 186.714 123.532C187.104 123.532 187.485 123.428 187.858 123.22C188.239 123.003 188.538 122.735 188.755 122.414L189.093 122.674C188.772 123.177 188.356 123.558 187.845 123.818C187.342 124.078 186.848 124.208 186.363 124.208ZM189.98 123.61C190.231 123.61 190.413 123.549 190.526 123.428C190.639 123.298 190.704 123.133 190.721 122.934C190.747 122.735 190.76 122.431 190.76 122.024V115.875C190.76 115.546 190.773 115.264 190.799 115.03L189.876 115.082V114.536C190.396 114.536 190.764 114.506 190.981 114.445C191.206 114.384 191.38 114.298 191.501 114.185H191.878V118.15C192.181 117.899 192.524 117.695 192.905 117.539C193.286 117.374 193.655 117.292 194.01 117.292C194.755 117.292 195.297 117.526 195.635 117.994C195.973 118.462 196.146 119.199 196.155 120.204L196.168 122.622C196.168 123.012 196.151 123.307 196.116 123.506L196.935 123.467V124H194.283V123.61C194.534 123.61 194.712 123.549 194.816 123.428C194.929 123.298 194.994 123.138 195.011 122.947C195.037 122.748 195.05 122.44 195.05 122.024V120.204C195.05 119.459 194.933 118.904 194.699 118.54C194.465 118.167 194.097 117.981 193.594 117.981C193.273 117.981 192.953 118.059 192.632 118.215C192.32 118.362 192.069 118.553 191.878 118.787V122.622C191.878 122.96 191.856 123.255 191.813 123.506L192.632 123.467V124H189.98V123.61ZM201.116 124.208C200.518 124.208 199.968 124.069 199.465 123.792C198.971 123.506 198.577 123.112 198.282 122.609C197.996 122.106 197.853 121.539 197.853 120.906C197.853 120.23 197.996 119.619 198.282 119.073C198.568 118.518 198.958 118.085 199.452 117.773C199.955 117.452 200.51 117.292 201.116 117.292C201.714 117.292 202.265 117.439 202.767 117.734C203.27 118.02 203.664 118.414 203.95 118.917C204.245 119.42 204.392 119.979 204.392 120.594C204.392 121.253 204.245 121.859 203.95 122.414C203.664 122.969 203.27 123.406 202.767 123.727C202.273 124.048 201.723 124.208 201.116 124.208ZM201.22 123.688C201.853 123.688 202.317 123.428 202.611 122.908C202.915 122.388 203.066 121.742 203.066 120.971C203.066 120.096 202.902 119.346 202.572 118.722C202.252 118.098 201.766 117.786 201.116 117.786C200.475 117.786 199.99 118.05 199.66 118.579C199.34 119.108 199.179 119.758 199.179 120.529C199.179 121.084 199.253 121.604 199.4 122.089C199.556 122.566 199.786 122.951 200.089 123.246C200.401 123.541 200.778 123.688 201.22 123.688ZM208.721 124.208C208.123 124.208 207.572 124.069 207.07 123.792C206.576 123.506 206.181 123.112 205.887 122.609C205.601 122.106 205.458 121.539 205.458 120.906C205.458 120.23 205.601 119.619 205.887 119.073C206.173 118.518 206.563 118.085 207.057 117.773C207.559 117.452 208.114 117.292 208.721 117.292C209.319 117.292 209.869 117.439 210.372 117.734C210.874 118.02 211.269 118.414 211.555 118.917C211.849 119.42 211.997 119.979 211.997 120.594C211.997 121.253 211.849 121.859 211.555 122.414C211.269 122.969 210.874 123.406 210.372 123.727C209.878 124.048 209.327 124.208 208.721 124.208ZM208.825 123.688C209.457 123.688 209.921 123.428 210.216 122.908C210.519 122.388 210.671 121.742 210.671 120.971C210.671 120.096 210.506 119.346 210.177 118.722C209.856 118.098 209.371 117.786 208.721 117.786C208.079 117.786 207.594 118.05 207.265 118.579C206.944 119.108 206.784 119.758 206.784 120.529C206.784 121.084 206.857 121.604 207.005 122.089C207.161 122.566 207.39 122.951 207.694 123.246C208.006 123.541 208.383 123.688 208.825 123.688ZM212.971 123.61C213.223 123.61 213.4 123.549 213.504 123.428C213.617 123.298 213.682 123.138 213.699 122.947C213.725 122.748 213.738 122.44 213.738 122.024V115.875C213.738 115.546 213.751 115.264 213.777 115.03L212.854 115.082V114.536C213.374 114.536 213.743 114.506 213.959 114.445C214.185 114.384 214.358 114.298 214.479 114.185H214.856L214.869 122.622C214.869 122.96 214.848 123.255 214.804 123.506L215.623 123.467V124H212.971V123.61Z" fill="white"/>
<path d="M155.262 154.371H155.496C156.902 154.371 158 153.996 158.789 153.246C159.586 152.488 159.984 151.438 159.984 150.094C159.984 148.844 159.613 147.852 158.871 147.117C158.137 146.383 157.125 146.016 155.836 146.016H155.262V154.371ZM152.613 159.234V156.598H152.227C150.828 156.598 149.598 156.344 148.535 155.836C147.48 155.32 146.652 154.551 146.051 153.527C145.449 152.504 145.148 151.367 145.148 150.117C145.148 148.906 145.422 147.816 145.969 146.848C146.516 145.871 147.301 145.109 148.324 144.562C149.348 144.008 150.547 143.73 151.922 143.73H152.613V141.621H155.262V143.73H155.977C157.359 143.73 158.559 144.004 159.574 144.551C160.598 145.098 161.375 145.855 161.906 146.824C162.445 147.785 162.715 148.883 162.715 150.117C162.715 151.391 162.414 152.535 161.812 153.551C161.211 154.566 160.383 155.328 159.328 155.836C158.281 156.344 157.051 156.598 155.637 156.598H155.262V159.234H152.613ZM152.613 146.016H152.039C150.742 146.016 149.727 146.387 148.992 147.129C148.258 147.863 147.891 148.852 147.891 150.094C147.891 151.422 148.285 152.469 149.074 153.234C149.863 153.992 150.973 154.371 152.402 154.371H152.613V146.016ZM177.363 152.496C177.363 154.613 176.82 156.266 175.734 157.453C174.648 158.641 173.137 159.234 171.199 159.234C169.988 159.234 168.918 158.961 167.988 158.414C167.059 157.867 166.344 157.082 165.844 156.059C165.344 155.035 165.094 153.848 165.094 152.496C165.094 150.395 165.633 148.754 166.711 147.574C167.789 146.395 169.309 145.805 171.27 145.805C173.145 145.805 174.629 146.41 175.723 147.621C176.816 148.824 177.363 150.449 177.363 152.496ZM167.93 152.496C167.93 155.488 169.035 156.984 171.246 156.984C173.434 156.984 174.527 155.488 174.527 152.496C174.527 149.535 173.426 148.055 171.223 148.055C170.066 148.055 169.227 148.438 168.703 149.203C168.188 149.969 167.93 151.066 167.93 152.496ZM190.277 146.039V148.195H186.059V159H183.293V148.195H179.074V146.039H190.277ZM204.27 152.496C204.27 154.613 203.727 156.266 202.641 157.453C201.555 158.641 200.043 159.234 198.105 159.234C196.895 159.234 195.824 158.961 194.895 158.414C193.965 157.867 193.25 157.082 192.75 156.059C192.25 155.035 192 153.848 192 152.496C192 150.395 192.539 148.754 193.617 147.574C194.695 146.395 196.215 145.805 198.176 145.805C200.051 145.805 201.535 146.41 202.629 147.621C203.723 148.824 204.27 150.449 204.27 152.496ZM194.836 152.496C194.836 155.488 195.941 156.984 198.152 156.984C200.34 156.984 201.434 155.488 201.434 152.496C201.434 149.535 200.332 148.055 198.129 148.055C196.973 148.055 196.133 148.438 195.609 149.203C195.094 149.969 194.836 151.066 194.836 152.496ZM216.434 146.039V151.242H222.539V146.039H225.293V159H222.539V153.41H216.434V159H213.68V146.039H216.434ZM237.352 159L236.801 157.195H236.707C236.082 157.984 235.453 158.523 234.82 158.812C234.188 159.094 233.375 159.234 232.383 159.234C231.109 159.234 230.113 158.891 229.395 158.203C228.684 157.516 228.328 156.543 228.328 155.285C228.328 153.949 228.824 152.941 229.816 152.262C230.809 151.582 232.32 151.211 234.352 151.148L236.59 151.078V150.387C236.59 149.559 236.395 148.941 236.004 148.535C235.621 148.121 235.023 147.914 234.211 147.914C233.547 147.914 232.91 148.012 232.301 148.207C231.691 148.402 231.105 148.633 230.543 148.898L229.652 146.93C230.355 146.562 231.125 146.285 231.961 146.098C232.797 145.902 233.586 145.805 234.328 145.805C235.977 145.805 237.219 146.164 238.055 146.883C238.898 147.602 239.32 148.73 239.32 150.27V159H237.352ZM233.25 157.125C234.25 157.125 235.051 156.848 235.652 156.293C236.262 155.73 236.566 154.945 236.566 153.938V152.812L234.902 152.883C233.605 152.93 232.66 153.148 232.066 153.539C231.48 153.922 231.188 154.512 231.188 155.309C231.188 155.887 231.359 156.336 231.703 156.656C232.047 156.969 232.562 157.125 233.25 157.125ZM261.527 159H243.164V146.039H245.918V156.82H250.969V146.039H253.723V156.82H258.762V146.039H261.527V159ZM271.137 159.234C269.121 159.234 267.543 158.648 266.402 157.477C265.27 156.297 264.703 154.676 264.703 152.613C264.703 150.496 265.23 148.832 266.285 147.621C267.34 146.41 268.789 145.805 270.633 145.805C272.344 145.805 273.695 146.324 274.688 147.363C275.68 148.402 276.176 149.832 276.176 151.652V153.141H267.539C267.578 154.398 267.918 155.367 268.559 156.047C269.199 156.719 270.102 157.055 271.266 157.055C272.031 157.055 272.742 156.984 273.398 156.844C274.062 156.695 274.773 156.453 275.531 156.117V158.355C274.859 158.676 274.18 158.902 273.492 159.035C272.805 159.168 272.02 159.234 271.137 159.234ZM270.633 147.891C269.758 147.891 269.055 148.168 268.523 148.723C268 149.277 267.688 150.086 267.586 151.148H273.469C273.453 150.078 273.195 149.27 272.695 148.723C272.195 148.168 271.508 147.891 270.633 147.891ZM281.941 146.039V152.684C281.941 153.457 281.879 154.594 281.754 156.094L288.258 146.039H291.621V159H288.973V152.473C288.973 152.113 288.992 151.531 289.031 150.727C289.078 149.922 289.117 149.336 289.148 148.969L282.668 159H279.305V146.039H281.941ZM285.375 144.457C283.719 144.457 282.504 144.16 281.73 143.566C280.965 142.965 280.539 141.965 280.453 140.566H282.949C282.996 141.129 283.102 141.566 283.266 141.879C283.438 142.191 283.68 142.418 283.992 142.559C284.312 142.691 284.797 142.758 285.445 142.758C286.211 142.758 286.793 142.59 287.191 142.254C287.59 141.91 287.832 141.348 287.918 140.566H290.461C290.344 141.91 289.871 142.895 289.043 143.52C288.215 144.145 286.992 144.457 285.375 144.457ZM307.008 159.234C305.047 159.234 303.555 158.664 302.531 157.523C301.516 156.375 301.008 154.73 301.008 152.59C301.008 150.41 301.539 148.734 302.602 147.562C303.672 146.391 305.215 145.805 307.23 145.805C308.598 145.805 309.828 146.059 310.922 146.566L310.09 148.781C308.926 148.328 307.965 148.102 307.207 148.102C304.965 148.102 303.844 149.59 303.844 152.566C303.844 154.02 304.121 155.113 304.676 155.848C305.238 156.574 306.059 156.938 307.137 156.938C308.363 156.938 309.523 156.633 310.617 156.023V158.426C310.125 158.715 309.598 158.922 309.035 159.047C308.48 159.172 307.805 159.234 307.008 159.234ZM323.402 146.039V148.195H319.184V159H316.418V148.195H312.199V146.039H323.402ZM323.93 146.039H326.93L329.566 153.387C329.965 154.434 330.23 155.418 330.363 156.34H330.457C330.527 155.91 330.656 155.391 330.844 154.781C331.031 154.164 332.023 151.25 333.82 146.039H336.797L331.254 160.723C330.246 163.418 328.566 164.766 326.215 164.766C325.605 164.766 325.012 164.699 324.434 164.566V162.387C324.848 162.48 325.32 162.527 325.852 162.527C327.18 162.527 328.113 161.758 328.652 160.219L329.133 159L323.93 146.039ZM351.199 163.582H348.633V159H339.75V163.582H337.207V156.867H338.262C339.184 155.547 339.914 153.953 340.453 152.086C341 150.211 341.324 148.195 341.426 146.039H349.301V156.867H351.199V163.582ZM346.594 156.867V148.148H343.805C343.656 149.758 343.344 151.344 342.867 152.906C342.398 154.469 341.824 155.789 341.145 156.867H346.594ZM356.238 146.039V152.684C356.238 153.457 356.176 154.594 356.051 156.094L362.555 146.039H365.918V159H363.27V152.473C363.27 152.113 363.289 151.531 363.328 150.727C363.375 149.922 363.414 149.336 363.445 148.969L356.965 159H353.602V146.039H356.238ZM372.48 146.039V152.684C372.48 153.457 372.418 154.594 372.293 156.094L378.797 146.039H382.16V159H379.512V152.473C379.512 152.113 379.531 151.531 379.57 150.727C379.617 149.922 379.656 149.336 379.688 148.969L373.207 159H369.844V146.039H372.48Z" fill="white"/>
<path d="M259.072 72.758C259.384 72.758 259.642 72.668 259.846 72.488C260.062 72.308 260.23 72.092 260.35 71.84C260.47 71.576 260.62 71.198 260.8 70.706L264.31 61.076H265.57L269.404 70.886C269.5 71.126 269.602 71.426 269.71 71.786C269.818 72.134 269.884 72.428 269.908 72.668C270.304 72.632 270.652 72.614 270.952 72.614V74H266.11V72.812C266.686 72.812 266.974 72.572 266.974 72.092C266.974 71.852 266.908 71.564 266.776 71.228L266.416 70.238L262.51 70.31L262.222 71.156C262.186 71.252 262.102 71.468 261.97 71.804C261.85 72.14 261.742 72.41 261.646 72.614C262.03 72.578 262.456 72.56 262.924 72.56V74H259.072V72.758ZM265.966 68.96L265.138 66.71C264.79 65.726 264.562 64.904 264.454 64.244H264.436C264.244 65.108 264.022 65.9 263.77 66.62L262.96 68.96H265.966Z" fill="white"/>
<circle cx="265" cy="68" r="14.5" stroke="white"/>
</svg>
