<svg width="2166" height="1226" viewBox="0 0 2166 1226" fill="none" xmlns="http://www.w3.org/2000/svg">
<rect width="2166" height="1226" fill="#E74856"/>
<path d="M588.114 515.508C589.181 515.508 590.034 515.273 590.674 514.804C591.314 514.292 591.826 513.652 592.21 512.884C592.637 512.073 593.127 510.879 593.682 509.3L594.322 507.508L607.506 471.604H609.042L623.314 508.02C623.783 509.172 624.189 510.431 624.53 511.796C624.871 513.119 625.021 514.207 624.978 515.06L629.33 514.804V517.62H614.674V515.508C617.191 515.465 618.45 514.441 618.45 512.436C618.45 511.625 618.237 510.623 617.81 509.428L615.57 503.412L598.93 503.796C598.29 505.545 597.543 507.828 596.69 510.644C596.263 512.052 595.73 513.524 595.09 515.06L600.082 514.804V517.62H588.114V515.508ZM614.674 501.044L610.13 488.82L607.25 480.948H607.122L604.434 488.18L600.978 497.908L599.89 501.044H614.674ZM632.996 514.996L650.852 492.02C651.534 491.124 652.217 490.271 652.9 489.46C653.582 488.607 654.116 488.073 654.5 487.86L642.468 488.052C640.292 488.095 638.756 488.884 637.86 490.42C637.006 491.913 636.366 494.132 635.94 497.076H633.956L634.724 485.62H659.812V487.668L641.764 511.412C641.252 512.052 640.74 512.671 640.228 513.268C639.758 513.823 639.161 514.399 638.436 514.996L650.788 515.188C653.22 515.231 654.99 514.441 656.1 512.82C657.252 511.199 658.041 508.916 658.468 505.972H660.324L659.556 517.62H632.996V514.996ZM674.899 518.644C671.784 518.644 669.395 517.94 667.731 516.532C666.11 515.124 665.299 513.289 665.299 511.028C665.299 508.553 666.28 506.463 668.243 504.756C670.248 503.049 672.744 501.791 675.731 500.98C678.76 500.127 681.79 499.721 684.819 499.764V495.796C684.819 493.023 684.414 490.868 683.603 489.332C682.792 487.753 681.064 486.964 678.419 486.964C677.096 486.964 675.838 487.241 674.643 487.796C673.448 488.351 672.574 489.183 672.019 490.292C672.574 490.889 672.851 491.7 672.851 492.724C672.851 493.364 672.616 493.983 672.147 494.58C671.678 495.135 670.995 495.412 670.099 495.412C669.203 495.412 668.499 495.135 667.987 494.58C667.475 493.983 667.219 493.215 667.219 492.276C667.219 490.868 667.752 489.588 668.819 488.436C669.928 487.241 671.443 486.303 673.363 485.62C675.326 484.937 677.502 484.596 679.891 484.596C683.475 484.596 686.12 485.556 687.827 487.476C689.534 489.353 690.366 492.34 690.323 496.436L690.259 510.836C690.259 512.201 690.174 513.652 690.003 515.188L694.547 514.932V517.62H685.395C685.267 516.98 685.118 515.764 684.947 513.972C681.832 517.087 678.483 518.644 674.899 518.644ZM676.371 514.996C677.992 514.996 679.464 514.697 680.787 514.1C682.11 513.46 683.454 512.5 684.819 511.22C684.776 510.58 684.755 509.492 684.755 507.956L684.819 501.94C681.32 502.068 678.206 502.793 675.475 504.116C672.744 505.396 671.379 507.38 671.379 510.068C671.379 511.647 671.848 512.863 672.787 513.716C673.726 514.569 674.92 514.996 676.371 514.996ZM698.939 515.7C700.176 515.7 701.051 515.401 701.563 514.804C702.118 514.164 702.438 513.375 702.523 512.436C702.651 511.455 702.715 509.94 702.715 507.892V493.3C702.715 491.508 702.8 490.121 702.971 489.14L698.427 489.332V486.708H700.411C702.032 486.708 703.206 486.58 703.931 486.324C704.656 486.025 705.339 485.577 705.979 484.98H707.835C708.006 486.644 708.112 488.756 708.155 491.316C709.222 489.567 710.736 488.009 712.699 486.644C714.704 485.279 716.774 484.596 718.907 484.596C720.187 484.596 721.254 484.937 722.107 485.62C722.96 486.303 723.387 487.305 723.387 488.628C723.387 489.311 723.11 489.993 722.555 490.676C722.043 491.359 721.296 491.7 720.315 491.7C719.376 491.7 718.608 491.359 718.011 490.676C717.414 489.951 717.179 489.097 717.307 488.116C715.686 488.073 714.043 488.692 712.379 489.972C710.758 491.252 709.371 492.959 708.219 495.092L708.283 510.836C708.283 512.756 708.198 514.207 708.027 515.188L712.059 514.996V517.62H698.939V515.7ZM739.096 518.644C733.251 518.644 730.349 514.719 730.392 506.868L730.52 488.308L725.592 488.372V485.62C727.64 485.577 729.368 484.66 730.776 482.868C732.227 481.033 733.293 478.964 733.976 476.66H736.152V485.62H746.904V488.116L736.152 488.244C736.109 494.772 736.067 499.295 736.024 501.812C736.024 504.329 736.024 505.737 736.024 506.036C736.024 509.065 736.387 511.327 737.112 512.82C737.837 514.271 739.096 514.996 740.888 514.996C741.997 514.996 743.085 514.655 744.152 513.972C745.261 513.289 746.221 512.351 747.032 511.156L748.76 512.564C747.096 515.039 745.453 516.681 743.832 517.492C742.211 518.26 740.632 518.644 739.096 518.644ZM764.934 518.644C762.929 518.644 761.094 518.367 759.43 517.812C757.766 517.3 756.337 516.639 755.142 515.828L755.398 518.068H752.71L752.326 507.06H754.31C754.395 508.809 754.865 510.367 755.718 511.732C756.614 513.097 757.766 514.185 759.174 514.996C760.625 515.764 762.161 516.148 763.782 516.148C765.617 516.148 767.238 515.721 768.646 514.868C770.097 513.972 770.822 512.713 770.822 511.092C770.822 509.897 770.459 508.895 769.734 508.084C769.051 507.273 768.177 506.612 767.11 506.1C766.086 505.545 764.635 504.905 762.758 504.18C760.497 503.327 758.683 502.537 757.318 501.812C755.953 501.044 754.779 500.02 753.798 498.74C752.817 497.46 752.326 495.839 752.326 493.876C752.326 492.468 752.667 491.06 753.35 489.652C754.033 488.244 755.185 487.049 756.806 486.068C758.427 485.087 760.582 484.596 763.27 484.596C764.593 484.596 765.937 484.809 767.302 485.236C768.71 485.663 770.011 486.367 771.206 487.348L771.078 484.916H773.766V496.116H771.718C771.59 493.641 770.822 491.508 769.414 489.716C768.049 487.881 766.107 486.964 763.59 486.964C761.67 486.964 760.134 487.455 758.982 488.436C757.873 489.375 757.318 490.505 757.318 491.828C757.318 493.065 757.681 494.111 758.406 494.964C759.174 495.817 760.113 496.543 761.222 497.14C762.331 497.737 763.825 498.399 765.702 499.124C767.921 500.02 769.713 500.852 771.078 501.62C772.443 502.388 773.595 503.412 774.534 504.692C775.515 505.929 776.006 507.444 776.006 509.236C776.006 511.284 775.473 513.012 774.406 514.42C773.382 515.828 772.017 516.895 770.31 517.62C768.646 518.303 766.854 518.644 764.934 518.644ZM797.055 518.644C794.154 518.644 791.487 517.983 789.055 516.66C786.666 515.337 784.767 513.439 783.359 510.964C781.951 508.489 781.247 505.567 781.247 502.196C781.247 499.209 781.951 496.372 783.359 493.684C784.81 490.953 786.794 488.756 789.311 487.092C791.871 485.428 794.751 484.596 797.951 484.596C800.255 484.596 802.303 484.959 804.095 485.684C805.887 486.409 807.274 487.369 808.255 488.564C809.279 489.759 809.791 491.06 809.791 492.468C809.791 493.449 809.514 494.26 808.959 494.9C808.404 495.54 807.636 495.86 806.655 495.86C805.716 495.86 805.012 495.561 804.543 494.964C804.074 494.324 803.839 493.663 803.839 492.98C803.839 491.913 804.159 491.06 804.799 490.42C804.33 489.097 803.412 488.201 802.047 487.732C800.724 487.22 799.402 486.964 798.079 486.964C796.116 486.964 794.346 487.497 792.767 488.564C791.231 489.631 790.015 491.188 789.119 493.236C788.223 495.284 787.775 497.737 787.775 500.596C787.775 503.455 788.223 505.993 789.119 508.212C790.058 510.431 791.359 512.18 793.023 513.46C794.687 514.697 796.607 515.316 798.783 515.316C800.703 515.316 802.58 514.804 804.415 513.78C806.292 512.713 807.764 511.391 808.831 509.812L810.495 511.092C808.916 513.567 806.868 515.444 804.351 516.724C801.876 518.004 799.444 518.644 797.055 518.644ZM814.862 515.7C816.099 515.7 816.995 515.401 817.55 514.804C818.104 514.164 818.424 513.353 818.51 512.372C818.638 511.391 818.702 509.897 818.702 507.892V477.62C818.702 475.999 818.766 474.612 818.894 473.46L814.35 473.716V471.028C816.91 471.028 818.723 470.879 819.79 470.58C820.899 470.281 821.752 469.855 822.35 469.3H824.206V488.82C825.699 487.583 827.384 486.58 829.262 485.812C831.139 485.001 832.952 484.596 834.702 484.596C838.371 484.596 841.038 485.748 842.702 488.052C844.366 490.356 845.219 493.983 845.262 498.932L845.326 510.836C845.326 512.756 845.24 514.207 845.07 515.188L849.102 514.996V517.62H836.046V515.7C837.283 515.7 838.158 515.401 838.67 514.804C839.224 514.164 839.544 513.375 839.63 512.436C839.758 511.455 839.822 509.94 839.822 507.892V498.932C839.822 495.263 839.246 492.532 838.094 490.74C836.942 488.905 835.128 487.988 832.654 487.988C831.075 487.988 829.496 488.372 827.918 489.14C826.382 489.865 825.144 490.804 824.206 491.956V510.836C824.206 512.5 824.099 513.951 823.886 515.188L827.918 514.996V517.62H814.862V515.7ZM869.686 518.644C866.742 518.644 864.033 517.961 861.558 516.596C859.126 515.188 857.185 513.247 855.734 510.772C854.326 508.297 853.622 505.503 853.622 502.388C853.622 499.06 854.326 496.052 855.734 493.364C857.142 490.633 859.062 488.5 861.494 486.964C863.969 485.385 866.699 484.596 869.686 484.596C872.63 484.596 875.339 485.321 877.814 486.772C880.289 488.18 882.23 490.121 883.638 492.596C885.089 495.071 885.814 497.823 885.814 500.852C885.814 504.095 885.089 507.081 883.638 509.812C882.23 512.543 880.289 514.697 877.814 516.276C875.382 517.855 872.673 518.644 869.686 518.644ZM870.198 516.084C873.313 516.084 875.595 514.804 877.046 512.244C878.539 509.684 879.286 506.505 879.286 502.708C879.286 498.399 878.475 494.708 876.854 491.636C875.275 488.564 872.886 487.028 869.686 487.028C866.529 487.028 864.139 488.329 862.518 490.932C860.939 493.535 860.15 496.735 860.15 500.532C860.15 503.263 860.513 505.823 861.238 508.212C862.006 510.559 863.137 512.457 864.63 513.908C866.166 515.359 868.022 516.084 870.198 516.084ZM907.124 518.644C904.18 518.644 901.47 517.961 898.996 516.596C896.564 515.188 894.622 513.247 893.172 510.772C891.764 508.297 891.06 505.503 891.06 502.388C891.06 499.06 891.764 496.052 893.172 493.364C894.58 490.633 896.5 488.5 898.932 486.964C901.406 485.385 904.137 484.596 907.124 484.596C910.068 484.596 912.777 485.321 915.252 486.772C917.726 488.18 919.668 490.121 921.076 492.596C922.526 495.071 923.252 497.823 923.252 500.852C923.252 504.095 922.526 507.081 921.076 509.812C919.668 512.543 917.726 514.697 915.252 516.276C912.82 517.855 910.11 518.644 907.124 518.644ZM907.636 516.084C910.75 516.084 913.033 514.804 914.484 512.244C915.977 509.684 916.724 506.505 916.724 502.708C916.724 498.399 915.913 494.708 914.292 491.636C912.713 488.564 910.324 487.028 907.124 487.028C903.966 487.028 901.577 488.329 899.956 490.932C898.377 493.535 897.588 496.735 897.588 500.532C897.588 503.263 897.95 505.823 898.676 508.212C899.444 510.559 900.574 512.457 902.068 513.908C903.604 515.359 905.46 516.084 907.636 516.084ZM928.049 515.7C929.286 515.7 930.161 515.401 930.673 514.804C931.228 514.164 931.548 513.375 931.633 512.436C931.761 511.455 931.825 509.94 931.825 507.892V477.62C931.825 475.999 931.889 474.612 932.017 473.46L927.473 473.716V471.028C930.033 471.028 931.846 470.879 932.913 470.58C934.022 470.281 934.876 469.855 935.473 469.3H937.329L937.393 510.836C937.393 512.5 937.286 513.951 937.073 515.188L941.105 514.996V517.62H928.049V515.7Z" fill="white"/>
<path d="M633.545 628.011H634.482C640.107 628.011 644.498 626.511 647.654 623.511C650.842 620.48 652.436 616.277 652.436 610.902C652.436 605.902 650.951 601.933 647.982 598.996C645.045 596.058 640.998 594.589 635.842 594.589H633.545V628.011ZM622.951 647.464V636.917H621.404C615.811 636.917 610.889 635.902 606.639 633.871C602.42 631.808 599.107 628.73 596.701 624.636C594.295 620.542 593.092 615.996 593.092 610.996C593.092 606.152 594.186 601.792 596.373 597.917C598.561 594.011 601.701 590.964 605.795 588.777C609.889 586.558 614.686 585.449 620.186 585.449H622.951V577.011H633.545V585.449H636.404C641.936 585.449 646.732 586.542 650.795 588.73C654.889 590.917 657.998 593.949 660.123 597.824C662.279 601.667 663.357 606.058 663.357 610.996C663.357 616.089 662.154 620.667 659.748 624.73C657.342 628.792 654.029 631.839 649.811 633.871C645.623 635.902 640.701 636.917 635.045 636.917H633.545V647.464H622.951ZM622.951 594.589H620.654C615.467 594.589 611.404 596.074 608.467 599.042C605.529 601.98 604.061 605.933 604.061 610.902C604.061 616.214 605.639 620.402 608.795 623.464C611.951 626.496 616.389 628.011 622.107 628.011H622.951V594.589ZM721.951 620.511C721.951 628.98 719.779 635.589 715.436 640.339C711.092 645.089 705.045 647.464 697.295 647.464C692.451 647.464 688.17 646.371 684.451 644.183C680.732 641.996 677.873 638.855 675.873 634.761C673.873 630.667 672.873 625.917 672.873 620.511C672.873 612.105 675.029 605.542 679.342 600.824C683.654 596.105 689.732 593.746 697.576 593.746C705.076 593.746 711.014 596.167 715.389 601.011C719.764 605.824 721.951 612.324 721.951 620.511ZM684.217 620.511C684.217 632.48 688.639 638.464 697.482 638.464C706.232 638.464 710.607 632.48 710.607 620.511C710.607 608.667 706.201 602.746 697.389 602.746C692.764 602.746 689.404 604.277 687.311 607.339C685.248 610.402 684.217 614.792 684.217 620.511ZM773.607 594.683V603.308H756.732V646.527H745.67V603.308H728.795V594.683H773.607ZM829.576 620.511C829.576 628.98 827.404 635.589 823.061 640.339C818.717 645.089 812.67 647.464 804.92 647.464C800.076 647.464 795.795 646.371 792.076 644.183C788.357 641.996 785.498 638.855 783.498 634.761C781.498 630.667 780.498 625.917 780.498 620.511C780.498 612.105 782.654 605.542 786.967 600.824C791.279 596.105 797.357 593.746 805.201 593.746C812.701 593.746 818.639 596.167 823.014 601.011C827.389 605.824 829.576 612.324 829.576 620.511ZM791.842 620.511C791.842 632.48 796.264 638.464 805.107 638.464C813.857 638.464 818.232 632.48 818.232 620.511C818.232 608.667 813.826 602.746 805.014 602.746C800.389 602.746 797.029 604.277 794.936 607.339C792.873 610.402 791.842 614.792 791.842 620.511ZM878.232 594.683V615.496H902.654V594.683H913.67V646.527H902.654V624.167H878.232V646.527H867.217V594.683H878.232ZM961.904 646.527L959.701 639.308H959.326C956.826 642.464 954.311 644.621 951.779 645.777C949.248 646.902 945.998 647.464 942.029 647.464C936.936 647.464 932.951 646.089 930.076 643.339C927.232 640.589 925.811 636.699 925.811 631.667C925.811 626.324 927.795 622.292 931.764 619.574C935.732 616.855 941.779 615.371 949.904 615.121L958.857 614.839V612.074C958.857 608.761 958.076 606.292 956.514 604.667C954.982 603.011 952.592 602.183 949.342 602.183C946.686 602.183 944.139 602.574 941.701 603.355C939.264 604.136 936.92 605.058 934.67 606.121L931.107 598.246C933.92 596.777 936.998 595.667 940.342 594.917C943.686 594.136 946.842 593.746 949.811 593.746C956.404 593.746 961.373 595.183 964.717 598.058C968.092 600.933 969.779 605.449 969.779 611.605V646.527H961.904ZM945.498 639.027C949.498 639.027 952.701 637.917 955.107 635.699C957.545 633.449 958.764 630.308 958.764 626.277V621.777L952.107 622.058C946.92 622.246 943.139 623.121 940.764 624.683C938.42 626.214 937.248 628.574 937.248 631.761C937.248 634.074 937.936 635.871 939.311 637.152C940.686 638.402 942.748 639.027 945.498 639.027ZM1058.61 646.527H985.154V594.683H996.17V637.808H1016.37V594.683H1027.39V637.808H1047.54V594.683H1058.61V646.527ZM1097.04 647.464C1088.98 647.464 1082.67 645.121 1078.11 640.433C1073.58 635.714 1071.31 629.23 1071.31 620.98C1071.31 612.511 1073.42 605.855 1077.64 601.011C1081.86 596.167 1087.65 593.746 1095.03 593.746C1101.87 593.746 1107.28 595.824 1111.25 599.98C1115.22 604.136 1117.2 609.855 1117.2 617.136V623.089H1082.65C1082.81 628.121 1084.17 631.996 1086.73 634.714C1089.29 637.402 1092.9 638.746 1097.56 638.746C1100.62 638.746 1103.47 638.464 1106.09 637.902C1108.75 637.308 1111.59 636.339 1114.62 634.996V643.949C1111.94 645.23 1109.22 646.136 1106.47 646.667C1103.72 647.199 1100.58 647.464 1097.04 647.464ZM1095.03 602.089C1091.53 602.089 1088.72 603.199 1086.59 605.417C1084.5 607.636 1083.25 610.871 1082.84 615.121H1106.37C1106.31 610.839 1105.28 607.605 1103.28 605.417C1101.28 603.199 1098.53 602.089 1095.03 602.089ZM1140.26 594.683V621.261C1140.26 624.355 1140.01 628.902 1139.51 634.902L1165.53 594.683H1178.98V646.527H1168.39V620.417C1168.39 618.98 1168.47 616.652 1168.62 613.433C1168.81 610.214 1168.97 607.871 1169.09 606.402L1143.17 646.527H1129.72V594.683H1140.26ZM1154 588.355C1147.37 588.355 1142.51 587.167 1139.42 584.792C1136.36 582.386 1134.65 578.386 1134.31 572.792H1144.29C1144.48 575.042 1144.9 576.792 1145.56 578.042C1146.25 579.292 1147.22 580.199 1148.47 580.761C1149.75 581.292 1151.69 581.558 1154.28 581.558C1157.34 581.558 1159.67 580.886 1161.26 579.542C1162.86 578.167 1163.83 575.917 1164.17 572.792H1174.34C1173.87 578.167 1171.98 582.105 1168.67 584.605C1165.36 587.105 1160.47 588.355 1154 588.355ZM1240.53 647.464C1232.69 647.464 1226.72 645.183 1222.62 640.621C1218.56 636.027 1216.53 629.449 1216.53 620.886C1216.53 612.167 1218.65 605.464 1222.9 600.777C1227.19 596.089 1233.36 593.746 1241.42 593.746C1246.89 593.746 1251.81 594.761 1256.19 596.792L1252.86 605.652C1248.2 603.839 1244.36 602.933 1241.33 602.933C1232.36 602.933 1227.87 608.886 1227.87 620.792C1227.87 626.605 1228.98 630.98 1231.2 633.917C1233.45 636.824 1236.73 638.277 1241.04 638.277C1245.95 638.277 1250.59 637.058 1254.97 634.621V644.23C1253 645.386 1250.89 646.214 1248.64 646.714C1246.42 647.214 1243.72 647.464 1240.53 647.464ZM1306.11 594.683V603.308H1289.23V646.527H1278.17V603.308H1261.29V594.683H1306.11ZM1308.22 594.683H1320.22L1330.76 624.074C1332.36 628.261 1333.42 632.199 1333.95 635.886H1334.33C1334.61 634.167 1335.12 632.089 1335.87 629.652C1336.62 627.183 1340.59 615.527 1347.78 594.683H1359.69L1337.51 653.417C1333.48 664.199 1326.76 669.589 1317.36 669.589C1314.92 669.589 1312.54 669.324 1310.23 668.792V660.074C1311.89 660.449 1313.78 660.636 1315.9 660.636C1321.22 660.636 1324.95 657.558 1327.11 651.402L1329.03 646.527L1308.22 594.683ZM1417.29 664.855H1407.03V646.527H1371.5V664.855H1361.33V637.996H1365.54C1369.23 632.714 1372.15 626.339 1374.31 618.871C1376.5 611.371 1377.79 603.308 1378.2 594.683H1409.7V637.996H1417.29V664.855ZM1398.87 637.996V603.121H1387.72C1387.12 609.558 1385.87 615.902 1383.97 622.152C1382.09 628.402 1379.79 633.683 1377.08 637.996H1398.87ZM1437.45 594.683V621.261C1437.45 624.355 1437.2 628.902 1436.7 634.902L1462.72 594.683H1476.17V646.527H1465.58V620.417C1465.58 618.98 1465.65 616.652 1465.81 613.433C1466 610.214 1466.15 607.871 1466.28 606.402L1440.36 646.527H1426.9V594.683H1437.45ZM1502.42 594.683V621.261C1502.42 624.355 1502.17 628.902 1501.67 634.902L1527.69 594.683H1541.14V646.527H1530.54V620.417C1530.54 618.98 1530.62 616.652 1530.78 613.433C1530.97 610.214 1531.12 607.871 1531.25 606.402L1505.33 646.527H1491.87V594.683H1502.42Z" fill="white"/>
<path d="M1058.77 295.886C1060.02 295.886 1061.05 295.526 1061.86 294.806C1062.73 294.086 1063.4 293.222 1063.88 292.214C1064.36 291.158 1064.96 289.646 1065.68 287.678L1079.72 249.158H1084.76L1100.1 288.398C1100.48 289.358 1100.89 290.558 1101.32 291.998C1101.75 293.39 1102.02 294.566 1102.11 295.526C1103.7 295.382 1105.09 295.31 1106.29 295.31V300.854H1086.92V296.102C1089.22 296.102 1090.38 295.142 1090.38 293.222C1090.38 292.262 1090.11 291.11 1089.58 289.766L1088.14 285.806L1072.52 286.094L1071.37 289.478C1071.22 289.862 1070.89 290.726 1070.36 292.07C1069.88 293.414 1069.45 294.494 1069.06 295.31C1070.6 295.166 1072.3 295.094 1074.18 295.094V300.854H1058.77V295.886ZM1086.34 280.694L1083.03 271.694C1081.64 267.758 1080.73 264.47 1080.3 261.83H1080.22C1079.46 265.286 1078.57 268.454 1077.56 271.334L1074.32 280.694H1086.34Z" fill="white"/>
<path d="M1142.3 277.893C1142.3 310.644 1115.75 337.193 1083 337.193C1050.25 337.193 1023.7 310.644 1023.7 277.893C1023.7 245.143 1050.25 218.593 1083 218.593C1115.75 218.593 1142.3 245.143 1142.3 277.893Z" stroke="white" stroke-width="4"/>
<path d="M927 842.49H1244M1244 842.49L1181.37 788M1244 842.49L1185.95 893" stroke="white" stroke-width="4"/>
</svg>
