<svg width="30" height="30" viewBox="0 0 30 30" fill="none" xmlns="http://www.w3.org/2000/svg">
<path d="M18.998 18.488C19.154 18.884 19.334 19.172 19.538 19.352C19.742 19.532 19.94 19.628 20.132 19.64V20C19.412 19.964 18.5 19.946 17.396 19.946C16.172 19.946 15.26 19.964 14.66 20V19.64C15.116 19.616 15.44 19.562 15.632 19.478C15.824 19.382 15.92 19.22 15.92 18.992C15.92 18.776 15.848 18.488 15.704 18.128L14.624 15.176H10.7L10.232 16.418C9.896 17.282 9.728 17.948 9.728 18.416C9.728 18.86 9.86 19.172 10.124 19.352C10.4 19.52 10.802 19.616 11.33 19.64V20C10.514 19.964 9.77 19.946 9.098 19.946C8.546 19.946 8.09 19.964 7.73 20V19.64C8.318 19.532 8.834 18.902 9.278 17.75L13.382 7.22C13.514 7.232 13.724 7.238 14.012 7.238C14.3 7.238 14.504 7.232 14.624 7.22L18.998 18.488ZM14.498 14.816L12.716 9.956L10.844 14.816H14.498ZM22.4359 17.48C22.9039 17.48 23.2759 17.606 23.5519 17.858C23.8279 18.098 23.9659 18.434 23.9659 18.866C23.9659 19.298 23.8279 19.64 23.5519 19.892C23.2759 20.132 22.9039 20.252 22.4359 20.252C21.9679 20.252 21.5959 20.132 21.3199 19.892C21.0439 19.64 20.9059 19.298 20.9059 18.866C20.9059 18.434 21.0439 18.098 21.3199 17.858C21.5959 17.606 21.9679 17.48 22.4359 17.48Z" fill="black"/>
<circle cx="15" cy="15" r="14.5" stroke="black"/>
</svg>
